<svg width="32" height="32" viewBox="0 0 32 32" fill="none" xmlns="http://www.w3.org/2000/svg">
<g clip-path="url(#clip0_1006_746)">
<path d="M16 32C24.8366 32 32 24.8366 32 16C32 7.16343 24.8366 0 16 0C7.16343 0 0 7.16343 0 16C0 24.8366 7.16343 32 16 32Z" fill="black"/>
<path d="M10.5371 25.11H21.4638C23.4728 25.11 24.7462 22.9428 23.7355 21.1909L16.9919 9.50244C16.5519 8.73924 15.4491 8.73924 15.009 9.50244L8.26408 21.1909C7.25471 22.94 8.52808 25.11 10.5357 25.11H10.5371ZM16.9974 13.0076L18.466 15.85L22.0097 22.1879C22.2435 22.5935 21.9547 23.1134 21.4652 23.1134H16.9988V13.0063L16.9974 13.0076ZM9.99397 22.1892L13.5363 15.8486L15.0049 13.0076L15.0049 23.1147H10.5385C10.0489 23.1147 9.7602 22.5949 9.99397 22.1892Z" fill="white"/>
</g>
<defs>
<clipPath id="clip0_1006_746">
<rect width="32" height="32" fill="white"/>
</clipPath>
</defs>
</svg>
