<svg width="32" height="32" viewBox="0 0 32 32" fill="none" xmlns="http://www.w3.org/2000/svg">
<path d="M16 32C24.8366 32 32 24.8366 32 16C32 7.16343 24.8366 0 16 0C7.16343 0 0 7.16343 0 16C0 24.8366 7.16343 32 16 32Z" fill="#0098EA"/>
<path d="M21.4631 8.93005H10.5364C8.52736 8.93005 7.25399 11.0972 8.26473 12.8491L15.0083 24.5376C15.4483 25.3008 16.5511 25.3008 16.9912 24.5376L23.7361 12.8491C24.7455 11.1 23.4721 8.93005 21.4644 8.93005H21.4631ZM15.0028 21.0324L13.5342 18.1901L9.9905 11.8522C9.75673 11.4465 10.0455 10.9267 10.535 10.9267H15.0014V21.0338L15.0028 21.0324ZM22.0062 11.8508L18.4639 18.1914L16.9953 21.0324V10.9253H21.4617C21.9512 10.9253 22.24 11.4451 22.0062 11.8508Z" fill="white"/>
</svg>
