<svg width="100" height="42" viewBox="0 0 100 42" fill="none" xmlns="http://www.w3.org/2000/svg">
<g clip-path="url(#clip0_1006_756)">
<path d="M18.4999 3.99443C6.32392 1.40984 1.16425 30.7411 1.16425 30.7411V41.9922H99V7.16629C99 7.16629 94.0504 18.5801 86.4999 19.1748C80.7517 19.6274 79.2583 11.8784 73.4999 12.1748C65.8238 12.5698 67.6767 26.1137 59.9999 26.4972C50.7004 26.9618 53.6081 7.22976 46.0432 7.16629C39.2955 7.10966 38.2259 17.042 31.4999 16.4973C24.4792 15.9288 25.3902 5.45701 18.4999 3.99443Z" fill="url(#paint0_linear_1006_756)"/>
<path d="M1.16431 30.74C1.16431 30.74 6.32398 1.40875 18.5 3.99333C25.3902 5.45592 24.4792 15.9277 31.5 16.4962C38.226 17.0409 39.2955 7.10857 46.0433 7.16519C53.6081 7.22866 50.7004 26.9607 60 26.4961C67.6767 26.1126 65.8238 12.5687 73.5 12.1737C79.2584 11.8773 80.7518 19.6263 86.5 19.1737C94.0505 18.579 99 7.16519 99 7.16519" stroke="url(#paint1_linear_1006_756)" stroke-linecap="round"/>
</g>
<defs>
<linearGradient id="paint0_linear_1006_756" x1="49.9999" y1="-1.83802" x2="49.9999" y2="41.9903" gradientUnits="userSpaceOnUse">
<stop stop-color="#02C173" stop-opacity="0.3"/>
<stop offset="0.817708" stop-color="#02C173" stop-opacity="0"/>
</linearGradient>
<linearGradient id="paint1_linear_1006_756" x1="99" y1="29.1707" x2="0.999998" y2="29.1707" gradientUnits="userSpaceOnUse">
<stop stop-color="#02C173"/>
<stop offset="1" stop-color="#02C173" stop-opacity="0"/>
</linearGradient>
<clipPath id="clip0_1006_756">
<rect width="100" height="42" fill="white" transform="translate(0 -0.00390625)"/>
</clipPath>
</defs>
</svg>
