<svg width="26" height="28" viewBox="0 0 26 28" fill="none" xmlns="http://www.w3.org/2000/svg">
<path d="M20.5798 0.377458L3.65763 5.06297C0.546247 5.92447 -0.496522 9.82677 1.82007 12.1066L17.276 27.3168C18.2848 28.31 19.9927 27.8371 20.3469 26.4665L25.7806 5.47224C26.5937 2.33051 23.6912 -0.484042 20.5819 0.37687L20.5798 0.377458ZM15.7644 21.8906L12.2711 18.1184L4.06526 9.82254C3.52927 9.29454 3.75353 8.36566 4.51169 8.15574L11.4288 6.24048L15.7629 21.8933L15.7644 21.8906ZM22.6734 4.6679L19.9064 16.0066L18.8502 21.0362L14.5161 5.38336L21.4333 3.4681C22.1914 3.25818 22.8615 3.93942 22.6734 4.6679Z" fill="white"/>
</svg>
