<svg width="24" height="24" viewBox="0 0 24 24" fill="none" xmlns="http://www.w3.org/2000/svg">
<path d="M13.7273 3.4442L15.4921 6.99336C15.7299 7.4842 16.3682 7.94986 16.9064 8.05055L20.0982 8.57915C22.1384 8.91896 22.614 10.4041 21.1496 11.8892L18.6588 14.3937C18.2457 14.809 18.0079 15.6271 18.1456 16.2186L18.859 19.3147C19.4223 21.7563 18.1206 22.7128 15.9802 21.4291L12.9888 19.6419C12.4506 19.3147 11.5494 19.3147 11.0112 19.6419L8.01972 21.4291C5.8794 22.7002 4.5777 21.7563 5.14094 19.3147L5.85439 16.2186C5.99207 15.6397 5.75426 14.8216 5.34121 14.3937L2.85044 11.8892C1.38601 10.4167 1.86163 8.93155 3.90182 8.57915L7.09351 8.05055C7.63172 7.96245 8.27007 7.4842 8.50788 6.99336L10.2727 3.4442C11.2115 1.5186 12.7635 1.5186 13.7273 3.4442Z" fill="url(#paint0_linear_1006_868)"/>
<defs>
<linearGradient id="paint0_linear_1006_868" x1="19.6667" y1="4.125" x2="6.66667" y2="20.0833" gradientUnits="userSpaceOnUse">
<stop stop-color="#FFE24D"/>
<stop offset="1" stop-color="#FFBE18"/>
</linearGradient>
</defs>
</svg>
