<svg width="100" height="42" viewBox="0 0 100 42" fill="none" xmlns="http://www.w3.org/2000/svg">
<g clip-path="url(#clip0_1006_769)">
<path d="M15.9999 19.1747C8.65374 19.229 1.16425 30.741 1.16425 30.741V41.9922H99V8.96784C99 8.96784 92.0732 16.5411 86.5 15.9944C81.7321 15.5266 81.1855 9.65452 76.4443 8.96784C69.3678 7.94297 68.2507 17.7503 61.2438 19.1747C55.565 20.3291 52.2115 16.5176 46.5 17.4972C39.0115 18.7816 37.4483 28.0007 29.862 27.5815C23.5405 27.2322 22.331 19.128 15.9999 19.1747Z" fill="url(#paint0_linear_1006_769)"/>
<path d="M1.16431 30.7426C1.16431 30.7426 8.6538 19.2305 16 19.1763C22.331 19.1295 23.5405 27.2337 29.8621 27.5831C37.4483 28.0023 39.0116 18.7832 46.5 17.4988C52.2116 16.5192 55.565 20.3307 61.2438 19.1763C68.2508 17.7519 69.3679 7.94455 76.4443 8.96943C81.1856 9.6561 81.7322 15.5282 86.5 15.996C92.0732 16.5427 99 8.96943 99 8.96943" stroke="url(#paint1_linear_1006_769)" stroke-linecap="round"/>
</g>
<defs>
<linearGradient id="paint0_linear_1006_769" x1="49.9999" y1="3.97379" x2="49.9999" y2="41.9905" gradientUnits="userSpaceOnUse">
<stop stop-color="#02C173" stop-opacity="0.3"/>
<stop offset="0.817708" stop-color="#02C173" stop-opacity="0"/>
</linearGradient>
<linearGradient id="paint1_linear_1006_769" x1="99" y1="29.4684" x2="0.999998" y2="29.4684" gradientUnits="userSpaceOnUse">
<stop stop-color="#02C173"/>
<stop offset="1" stop-color="#02C173" stop-opacity="0"/>
</linearGradient>
<clipPath id="clip0_1006_769">
<rect width="100" height="42" fill="white" transform="translate(0 -0.00390625)"/>
</clipPath>
</defs>
</svg>
