<svg width="22" height="22" viewBox="0 0 22 22" fill="none" xmlns="http://www.w3.org/2000/svg">
<path d="M11.9166 8.25H6.41663" stroke="#E1E1E1" stroke-width="1.5" stroke-linecap="round" stroke-linejoin="round"/>
<path d="M20.1667 10.0558V11.9442C20.1667 12.4484 19.7633 12.8608 19.25 12.8792H17.4533C16.4633 12.8792 15.5558 12.155 15.4733 11.165C15.4183 10.5875 15.6383 10.0467 16.0233 9.67083C16.3625 9.32249 16.83 9.12085 17.3433 9.12085H19.25C19.7633 9.13918 20.1667 9.55164 20.1667 10.0558Z" stroke="#E1E1E1" stroke-width="1.5" stroke-linecap="round" stroke-linejoin="round"/>
<path d="M16.0234 9.6708C15.6384 10.0466 15.4184 10.5875 15.4734 11.165C15.5559 12.155 16.4634 12.8791 17.4534 12.8791H19.25V14.2083C19.25 16.9583 17.4167 18.7916 14.6667 18.7916H6.41671C3.66671 18.7916 1.83337 16.9583 1.83337 14.2083V7.79165C1.83337 5.29831 3.33671 3.55664 5.67421 3.26331C5.91254 3.22664 6.16004 3.20831 6.41671 3.20831H14.6667C14.905 3.20831 15.1342 3.21747 15.3542 3.25414C17.7192 3.52914 19.25 5.27998 19.25 7.79165V9.12082H17.3434C16.83 9.12082 16.3625 9.32247 16.0234 9.6708Z" stroke="#E1E1E1" stroke-width="1.5" stroke-linecap="round" stroke-linejoin="round"/>
</svg>
